<svg version="1.1" viewBox="0.0 0.0 944.8818897637796 944.8818897637796" fill="none" stroke="none" stroke-linecap="square" stroke-miterlimit="10" xmlns:xlink="http://www.w3.org/1999/xlink" xmlns="http://www.w3.org/2000/svg"><clipPath id="g1312018eb15_0_1.0"><path d="m0 0l944.8819 0l0 944.8819l-944.8819 0l0 -944.8819z" clip-rule="nonzero"/></clipPath><g clip-path="url(#g1312018eb15_0_1.0)"><path fill="#000000" fill-opacity="0.0" d="m0 0l944.8819 0l0 944.8819l-944.8819 0z" fill-rule="evenodd"/><path fill="#000000" d="m1.7322835 64.72567l0 0c0 -34.790287 28.2031 -62.993385 62.993385 -62.993385l251.96597 0l0 0c16.706879 0 32.729492 6.6367836 44.54306 18.450336c11.813538 11.813551 18.450317 27.836164 18.450317 44.543053l0 251.96597c0 34.790283 -28.203094 62.993378 -62.993378 62.993378l-251.96597 0c-34.790287 0 -62.993385 -28.203094 -62.993385 -62.993378z" fill-rule="evenodd"/><path fill="#000000" d="m1.7322835 64.72567l0 0c0 -34.790287 28.2031 -62.993385 62.993385 -62.993385l251.96597 0l0 0c16.706879 0 32.729492 6.6367836 44.54306 18.450336c11.813538 11.813551 18.450317 27.836164 18.450317 44.543053l0 251.96597c0 34.790283 -28.203094 62.993378 -62.993378 62.993378l-251.96597 0c-34.790287 0 -62.993385 -28.203094 -62.993385 -62.993378z" fill-rule="evenodd"/><path fill="#000000" d="m566.92914 58.371338l0 0c0 -34.790283 28.203125 -62.993385 62.99341 -62.993385l251.96594 0l0 0c16.70691 0 32.729492 6.6367846 44.54309 18.450336c11.813538 11.813552 18.450317 27.836166 18.450317 44.54305l0 251.96597c0 34.790283 -28.203125 62.99341 -62.99341 62.99341l-251.96594 0c-34.790283 0 -62.99341 -28.203125 -62.99341 -62.99341z" fill-rule="evenodd"/><path fill="#000000" d="m566.92914 635.6968l0 0c0 -34.790283 28.203125 -62.993347 62.99341 -62.993347l251.96594 0l0 0c16.70691 0 32.729492 6.63678 44.54309 18.450317c11.813538 11.813538 18.450317 27.836182 18.450317 44.54303l0 251.966c0 34.790283 -28.203125 62.99341 -62.99341 62.99341l-251.96594 0c-34.790283 0 -62.99341 -28.203125 -62.99341 -62.99341z" fill-rule="evenodd"/><path fill="#000000" d="m1.7322835 629.92255l0 0c0 -34.790283 28.2031 -62.99341 62.993385 -62.99341l251.96597 0l0 0c16.706879 0 32.729492 6.63678 44.54306 18.450317c11.813538 11.813538 18.450317 27.836182 18.450317 44.54309l0 251.96594c0 34.790283 -28.203094 62.99341 -62.993378 62.99341l-251.96597 0c-34.790287 0 -62.993385 -28.203125 -62.993385 -62.99341z" fill-rule="evenodd"/></g></svg>