<svg version="1.1" viewBox="0.0 0.0 944.8818897637796 944.8818897637796" fill="none" stroke="none" stroke-linecap="square" stroke-miterlimit="10" xmlns:xlink="http://www.w3.org/1999/xlink" xmlns="http://www.w3.org/2000/svg"><clipPath id="p.0"><path d="m0 0l944.8819 0l0 944.8819l-944.8819 0l0 -944.8819z" clip-rule="nonzero"/></clipPath><g clip-path="url(#p.0)"><path fill="#000000" fill-opacity="0.0" d="m0 0l944.8819 0l0 944.8819l-944.8819 0z" fill-rule="evenodd"/><path fill="#000000" d="m0 0l377.95276 0l0 377.95276l-377.95276 0z" fill-rule="evenodd"/><path stroke="#595959" stroke-width="1.0" stroke-linejoin="round" stroke-linecap="butt" d="m0 0l377.95276 0l0 377.95276l-377.95276 0z" fill-rule="evenodd"/><path fill="#000000" d="m566.92914 0l377.95276 0l0 377.95276l-377.95276 0z" fill-rule="evenodd"/><path stroke="#595959" stroke-width="1.0" stroke-linejoin="round" stroke-linecap="butt" d="m566.92914 0l377.95276 0l0 377.95276l-377.95276 0z" fill-rule="evenodd"/><path fill="#000000" d="m566.92914 566.92914l377.95276 0l0 377.95276l-377.95276 0z" fill-rule="evenodd"/><path stroke="#595959" stroke-width="1.0" stroke-linejoin="round" stroke-linecap="butt" d="m566.92914 566.92914l377.95276 0l0 377.95276l-377.95276 0z" fill-rule="evenodd"/><path fill="#000000" d="m0 566.92914l377.95276 0l0 377.95276l-377.95276 0z" fill-rule="evenodd"/><path stroke="#595959" stroke-width="1.0" stroke-linejoin="round" stroke-linecap="butt" d="m0 566.92914l377.95276 0l0 377.95276l-377.95276 0z" fill-rule="evenodd"/></g></svg>